<?xml version="1.0" ?><!DOCTYPE svg  PUBLIC '-//W3C//DTD SVG 1.1//EN'  'http://www.w3.org/Graphics/SVG/1.1/DTD/svg11.dtd'><svg enable-background="new 0 0 512 512" height="512px" id="Chelsea_x5F_boot" version="1.1" viewBox="0 0 512 512" width="512px" xml:space="preserve" xmlns="http://www.w3.org/2000/svg" xmlns:xlink="http://www.w3.org/1999/xlink"><path d="M332.393,424.586c-29.395-0.001-58.577-1.944-82.175-5.475c-31.266-4.675-39.509-10.128-41.602-12.254  l-0.588-0.598l-0.361-0.756c-8.222-17.229-47.708-41.793-69.742-53.591c-0.294-0.157-0.611-0.237-0.943-0.237  c-0.307,0-0.767,0.071-1.21,0.407c-0.621,0.471-0.913,1.267-0.744,2.027c2.571,11.568,0.932,35.467,0.369,42.516l-0.276,3.453  l-3.33,0.954c-8.225,2.359-19.188,3.555-32.585,3.555c-20.206,0-40.457-2.689-50.729-4.294l-3.698-0.577l-0.488-3.711  c-4.135-31.451-16.318-137.129,0.553-176.496C61.65,180.294,66.602,112.101,67.72,92.135l0.264-4.721H229.55l1.535,26.096  c0.825,14.029,32.309,71.31,73.21,126.969c50.161,68.261,93.237,106.249,121.29,106.969c20.098,0.515,34.41,6.153,42.539,16.76  c8.881,11.59,7.941,26.31,7.125,32.1l-0.32,2.275l-1.937,1.238c-24.605,15.739-75.847,24.766-140.584,24.766H332.393z" fill="#F2EAE2"/><path d="M125.293,236.472c-12.509,0-22.687-10.178-22.687-22.688V87.414h63.477v126.37  c0,12.51-10.177,22.688-22.687,22.688H125.293z" fill="#F28F8F"/><path d="M475.366,358.861c-9.851-12.953-26.521-19.82-49.55-20.411c-24.479-0.628-67.196-39.245-114.269-103.301  c-42.014-57.173-70.845-111.394-71.479-122.168l-1.646-27.979c-0.218-3.699-3.281-6.589-6.988-6.589h-63.352h-67.477H66.045  c-3.763,0-6.853,2.976-6.995,6.736c-0.032,0.859-3.462,86.44-22.48,130.814C16.85,261.98,34.222,389.309,35.966,401.63  c0.084,3.476,2.104,5.718,6.01,6.679l-0.003,0.019c0.062,0.01,0.125,0.018,0.187,0.025c0.283,0.065,0.576,0.125,0.878,0.178  c0.857,0.149,2.113,0.36,3.71,0.612c2.849,0.449,7.427,1.128,13.054,1.815c9.829,1.2,24.644,2.63,39.403,2.63  c17.091,0,30.653-1.904,40.312-5.66c2.455-0.955,4.166-3.207,4.428-5.827c0.104-1.042,1.944-19.768,1.383-35.7  c21.636,12.694,48.829,31.406,54.262,43.077c2.53,5.435,10.147,12.41,46.907,18.17c24.437,3.829,54.943,5.938,85.895,5.938  c0.007,0,0.008,0,0.015,0c32.768,0,112.775-2.744,148.317-28.131c1.354-0.968,2.319-2.385,2.723-3.999  C483.692,400.474,489.301,377.189,475.366,358.861z M470.298,395.609c-23.527,15.049-74.626,23.977-137.89,23.977  c-0.004,0-0.012,0-0.016,0c-29.153-0.001-58.074-1.925-81.435-5.419c-31.994-4.784-38.151-10.18-38.778-10.817  c-10.808-22.646-65.657-52.505-71.895-55.844c-2.411-1.292-5.354-1.061-7.535,0.593c-2.18,1.653-3.196,4.425-2.603,7.097  c2.156,9.699,1.149,29.976,0.266,41.032c-7.781,2.231-18.25,3.36-31.207,3.36c-20.254,0-40.859-2.813-49.958-4.233  c-3.276-24.917-16.481-134.971,0.191-173.875c17.028-39.732,22.063-107.438,23.273-129.065h20.895v121.37  c0,17.473,14.214,31.688,31.687,31.688h18.104c17.472,0,31.687-14.215,31.687-31.688V92.414h49.751l1.258,21.39  c0.977,16.618,35.638,77.196,74.172,129.636c36.147,49.19,87.21,108.032,125.192,109.006c18.513,0.475,31.533,5.455,38.696,14.803  C471.854,377.295,471.05,390.275,470.298,395.609z M161.084,213.784c0,9.753-7.934,17.688-17.687,17.688h-18.104  c-9.752,0-17.687-7.935-17.687-17.688V92.414h53.477V213.784z" fill="#5A5954"/></svg>